<svg width="32" height="32" viewBox="0 0 32 32" fill="none" xmlns="http://www.w3.org/2000/svg">
<rect width="32" height="32" rx="16" fill="white"/>
<path d="M20.9901 18.2342C21.4099 17.8144 21.4699 17.2147 21.11 16.6151C20.8102 16.1353 20.2705 15.8954 19.6708 16.0154C19.4309 16.0753 19.191 16.1953 18.9512 16.3752C17.0921 17.6345 14.5734 17.5746 12.7144 16.3152C12.5945 16.2552 12.4745 16.1953 12.3546 16.1353C11.6949 15.8355 11.0353 15.9554 10.6755 16.5551C10.2557 17.1548 10.3157 17.8144 10.8554 18.3542C10.9753 18.4741 11.0953 18.5341 11.1552 18.654L11.2152 18.714C12.0548 19.3736 13.0742 19.7934 14.3935 19.9733L13.6139 20.7529C12.9543 21.4126 12.2347 22.1322 11.575 22.7918C11.3951 22.9718 11.1552 23.2716 11.1552 23.6914C11.1552 24.2311 11.4551 24.7708 11.9948 25.0107C12.1747 25.1306 12.3546 25.1306 12.5345 25.1306C12.8344 25.1306 13.1942 25.0107 13.434 24.7108C14.3336 23.8113 15.0532 23.0917 15.7728 22.3721C15.8328 22.3121 15.8328 22.3121 15.8328 22.3121C15.8328 22.3121 15.8928 22.3121 15.8928 22.3721C16.3725 22.9118 16.9122 23.3915 17.392 23.9312C17.6319 24.1711 17.8717 24.411 18.1116 24.6509C18.4115 24.9507 18.6513 25.0707 19.0111 25.0707C19.5509 25.1306 20.1505 24.7708 20.3904 24.2311C20.6303 23.7513 20.5104 23.1517 20.0906 22.7918C19.4909 22.1922 18.8912 21.5325 18.2315 20.9328L17.2121 19.9133C17.7518 19.8534 18.3515 19.7334 18.8912 19.4936C19.7907 19.1937 20.4504 18.7739 20.9901 18.2342Z" fill="#2B3544"/>
<path d="M15.8328 16.5551C18.4114 16.5551 20.5104 14.5161 20.5104 11.9375C20.5104 10.6781 20.0306 9.47877 19.1311 8.57924C18.2315 7.6797 17.0921 7.19995 15.8928 7.19995C13.3141 7.19995 11.2752 9.29886 11.2152 11.8175C11.2152 13.0769 11.6949 14.2163 12.5945 15.1158C13.434 16.0753 14.5734 16.5551 15.8328 16.5551ZM14.5135 10.5582C14.8733 10.1984 15.353 10.0185 15.8328 10.0185C16.9122 10.0185 17.6918 10.858 17.6918 11.8775C17.6918 12.957 16.8523 13.7365 15.8328 13.7365C14.7534 13.7365 13.9738 12.897 13.9738 11.8775C13.9738 11.3978 14.1537 10.918 14.5135 10.5582Z" fill="#2B3544"/>
<path d="M20.9901 18.2342C21.4099 17.8144 21.4699 17.2147 21.11 16.6151C20.8102 16.1353 20.2705 15.8954 19.6708 16.0154C19.4309 16.0753 19.191 16.1953 18.9512 16.3752C17.0921 17.6345 14.5734 17.5746 12.7144 16.3152C12.5945 16.2552 12.4745 16.1953 12.3546 16.1353C11.6949 15.8355 11.0353 15.9554 10.6755 16.5551C10.2557 17.1548 10.3157 17.8144 10.8554 18.3542C10.9753 18.4741 11.0953 18.5341 11.1552 18.654L11.2152 18.714C12.0548 19.3736 13.0742 19.7934 14.3935 19.9733L13.6139 20.7529C12.9543 21.4126 12.2347 22.1322 11.575 22.7918C11.3951 22.9718 11.1552 23.2716 11.1552 23.6914C11.1552 24.2311 11.4551 24.7708 11.9948 25.0107C12.1747 25.1306 12.3546 25.1306 12.5345 25.1306C12.8344 25.1306 13.1942 25.0107 13.434 24.7108C14.3336 23.8113 15.0532 23.0917 15.7728 22.3721C15.8328 22.3121 15.8328 22.3121 15.8328 22.3121C15.8328 22.3121 15.8928 22.3121 15.8928 22.3721C16.3725 22.9118 16.9122 23.3915 17.392 23.9312C17.6319 24.1711 17.8717 24.411 18.1116 24.6509C18.4115 24.9507 18.6513 25.0707 19.0111 25.0707C19.5509 25.1306 20.1505 24.7708 20.3904 24.2311C20.6303 23.7513 20.5104 23.1517 20.0906 22.7918C19.4909 22.1922 18.8912 21.5325 18.2315 20.9328L17.2121 19.9133C17.7518 19.8534 18.3515 19.7334 18.8912 19.4936C19.7907 19.1937 20.4504 18.7739 20.9901 18.2342Z" fill="#2B3544"/>
</svg>
