<svg width="21" height="20" viewBox="0 0 21 20" fill="none" xmlns="http://www.w3.org/2000/svg">
<path fill-rule="evenodd" clip-rule="evenodd" d="M8.5 4C7.43913 4 6.42172 4.42143 5.67157 5.17158C4.92143 5.92172 4.5 6.93914 4.5 8C4.5 9.06087 4.92143 10.0783 5.67157 10.8284C6.42172 11.5786 7.43913 12 8.5 12C9.56087 12 10.5783 11.5786 11.3284 10.8284C12.0786 10.0783 12.5 9.06087 12.5 8C12.5 6.93914 12.0786 5.92172 11.3284 5.17158C10.5783 4.42143 9.56087 4 8.5 4ZM2.5 8C2.49988 7.05571 2.72264 6.12472 3.15017 5.28274C3.5777 4.44077 4.19792 3.7116 4.9604 3.15453C5.72287 2.59746 6.60606 2.22822 7.53815 2.07684C8.47023 1.92546 9.42488 1.99621 10.3245 2.28335C11.224 2.57049 12.0432 3.06591 12.7152 3.7293C13.3872 4.39269 13.8931 5.20534 14.1919 6.10114C14.4906 6.99693 14.5737 7.9506 14.4343 8.88456C14.295 9.81852 13.9372 10.7064 13.39 11.476L18.207 16.293C18.3892 16.4816 18.49 16.7342 18.4877 16.9964C18.4854 17.2586 18.3802 17.5094 18.1948 17.6948C18.0094 17.8802 17.7586 17.9854 17.4964 17.9877C17.2342 17.99 16.9816 17.8892 16.793 17.707L11.977 12.891C11.0794 13.5293 10.0233 13.9082 8.92468 13.9861C7.826 14.0641 6.72707 13.8381 5.7483 13.333C4.76953 12.8278 3.94869 12.063 3.37572 11.1224C2.80276 10.1817 2.49979 9.10144 2.5 8Z" fill="white"/>
</svg>
