<svg width="32" height="32" viewBox="0 0 32 32" fill="none" xmlns="http://www.w3.org/2000/svg">
<rect width="32" height="32" rx="16" fill="white"/>
<path d="M16.786 21.5999C10.7728 21.5999 7.34292 17.3957 7.20001 10.3999H10.2121C10.3111 15.5346 12.5317 17.7096 14.2906 18.1581V10.3999H17.1268V14.8283C18.8637 14.6377 20.6886 12.6197 21.3042 10.3999H24.1404C23.9084 11.5512 23.446 12.6412 22.7821 13.6019C22.1182 14.5626 21.267 15.3732 20.2818 15.9831C21.3815 16.5403 22.3528 17.3291 23.1316 18.2973C23.9104 19.2655 24.4791 20.3911 24.8 21.5999H21.678C21.3899 20.55 20.8043 19.6101 19.9947 18.8982C19.1851 18.1862 18.1875 17.7337 17.1268 17.5975V21.5999H16.786Z" fill="#2B3544"/>
</svg>
